<svg xmlns="http://www.w3.org/2000/svg" version="1.1" xmlns:xlink="http://www.w3.org/1999/xlink" xmlns:svgjs="http://svgjs.com/svgjs" width="512" height="512" x="0" y="0" viewBox="0 0 512 512" style="enable-background:new 0 0 512 512" xml:space="preserve" class=""><g><path fill="#c9f0ff" d="M80.988 75.133a7.512 7.512 0 0 1-7.511-7.512V19.816a7.509 7.509 0 0 1 7.511-7.507 7.508 7.508 0 0 1 7.508 7.507v47.805a7.511 7.511 0 0 1-7.508 7.512zm0 0" data-original="#c9f0ff"></path><path fill="#ffaa00" d="M113.059 49.281h-73.29c-2.84 0-5.136 2.301-5.136 5.137v56.934h83.562V54.418a5.135 5.135 0 0 0-5.136-5.137zm0 0" data-original="#ffaa00"></path><path fill="#ff9500" d="M118.2 54.418v56.934h-18.071V54.418c0-2.836-2.3-5.137-5.137-5.137h18.07c2.836 0 5.137 2.301 5.137 5.137zm0 0" data-original="#ff9500"></path><path fill="#ffcd6b" d="M131.738 97.125H21.09a5.138 5.138 0 0 0-5.137 5.137v53.601h120.922v-53.601c0-2.836-2.3-5.137-5.137-5.137zm0 0" data-original="#ffcd6b" class=""></path><path fill="#ffc143" d="M136.875 102.258v53.605h-18.008v-53.605c0-2.836-2.3-5.137-5.137-5.137h18.008c2.836 0 5.137 2.3 5.137 5.137zm0 0" data-original="#ffc143" class=""></path><path fill="#ea4444" d="M352.047 1.664a5.138 5.138 0 0 0-7.555-.016l-52.047 56.317v15.152h111.23V57.965zm0 0" data-original="#ea4444"></path><path fill="#ffaa00" d="M152.828 511.227H0V149.934c0-2.836 2.3-5.137 5.137-5.137H147.69c2.84 0 5.137 2.3 5.137 5.137zm0 0" data-original="#ffaa00"></path><path fill="#ffcd6b" d="M83.273 170.094H39.324c-4.136 0-7.488 3.351-7.488 7.488s3.352 7.488 7.488 7.488h43.95c4.136 0 7.488-3.351 7.488-7.488s-3.352-7.488-7.489-7.488zM83.273 208.059H39.324c-4.136 0-7.488 3.351-7.488 7.488s3.352 7.488 7.488 7.488h43.95c4.136 0 7.488-3.351 7.488-7.488s-3.352-7.488-7.489-7.488zM83.273 246.023H39.324c-4.136 0-7.488 3.352-7.488 7.489S35.188 261 39.324 261h43.95c4.136 0 7.488-3.352 7.488-7.488s-3.352-7.489-7.489-7.489zM83.273 286.234H39.324a7.487 7.487 0 0 0-7.488 7.489 7.487 7.487 0 0 0 7.488 7.488h43.95a7.487 7.487 0 0 0 7.488-7.488 7.487 7.487 0 0 0-7.489-7.489zM83.273 324.2H39.324a7.49 7.49 0 0 0-7.488 7.491 7.487 7.487 0 0 0 7.488 7.489h43.95a7.487 7.487 0 0 0 7.488-7.489 7.49 7.49 0 0 0-7.489-7.492zM83.273 362.164H39.324a7.487 7.487 0 0 0-7.488 7.488 7.487 7.487 0 0 0 7.488 7.489h43.95a7.49 7.49 0 0 0 0-14.977zM83.273 399.004H39.324a7.487 7.487 0 0 0-7.488 7.488 7.487 7.487 0 0 0 7.488 7.488h43.95a7.487 7.487 0 0 0 7.488-7.488 7.487 7.487 0 0 0-7.489-7.488zm0 0" data-original="#ffcd6b" class=""></path><path fill="#ff9500" d="M152.832 149.934v361.289h-23.168v-361.29c0-2.835-2.3-5.136-5.137-5.136h23.168a5.14 5.14 0 0 1 5.137 5.137zm0 0" data-original="#ff9500"></path><path fill="#c9f0ff" d="M512 511.227H403.676V85.507H503.78c4.54 0 8.219 3.68 8.219 8.22zm0 0" data-original="#c9f0ff"></path><path fill="#9ae7fd" d="M512 511.227h-22.613V85.507h14.394c4.54 0 8.219 3.68 8.219 8.22zm0 0" data-original="#9ae7fd"></path><path fill="#d93131" d="M419 242.441v268.782h-23.492V242.44a5.14 5.14 0 0 0-5.137-5.136h23.492A5.138 5.138 0 0 1 419 242.44zm0 0" data-original="#d93131"></path><path fill="#fab2b2" d="M404.113 253.762H292.445V57.965h111.668zm0 0" data-original="#fab2b2"></path><path fill="#f89696" d="M404.11 253.762h-22.098V57.965h22.097zm0 0" data-original="#f89696"></path><path fill="#d93131" d="m403.676 57.96-21.668.005L338.039 8.64l6.453-6.985a5.13 5.13 0 0 1 7.559.008zm0 0" data-original="#d93131"></path><path fill="#0573cf" d="M473.992 123.957h-21.574a7.704 7.704 0 0 1-7.703-7.703 7.704 7.704 0 0 1 7.703-7.707h21.574a7.705 7.705 0 1 1 0 15.41zM473.992 173.184h-21.574a7.704 7.704 0 0 1-7.703-7.707 7.704 7.704 0 0 1 7.703-7.704h21.574a7.705 7.705 0 1 1 0 15.41zM473.992 222.406h-21.574a7.704 7.704 0 0 1-7.703-7.707 7.704 7.704 0 0 1 7.703-7.703h21.574a7.705 7.705 0 1 1 0 15.41zM473.992 271.629h-21.574a7.704 7.704 0 0 1-7.703-7.707 7.704 7.704 0 0 1 7.703-7.703h21.574a7.705 7.705 0 1 1 0 15.41zM473.992 320.852h-21.574a7.704 7.704 0 0 1-7.703-7.704 7.704 7.704 0 0 1 7.703-7.707h21.574a7.705 7.705 0 1 1 0 15.41zM473.992 370.074h-21.574a7.704 7.704 0 0 1-7.703-7.703 7.704 7.704 0 0 1 7.703-7.707h21.574a7.705 7.705 0 1 1 0 15.41zM473.992 419.3h-21.574a7.704 7.704 0 0 1-7.703-7.706 7.704 7.704 0 0 1 7.703-7.703h21.574a7.705 7.705 0 1 1 0 15.41zM69.512 511.227V289.219c0-4.324 3.914-7.598 8.172-6.828l152.754 27.527a6.934 6.934 0 0 1 5.707 6.828v194.48zm0 0" data-original="#0573cf"></path><path fill="#005aaf" d="M236.145 316.75v194.477h-16.922V312.03a6.937 6.937 0 0 0-1.57-4.398l12.78 2.285a6.945 6.945 0 0 1 5.712 6.832zm0 0" data-original="#005aaf"></path><path fill="#c9f0ff" d="M192.527 511.227H113.13v-78.543c0-20.872 16.918-37.79 37.789-37.79h3.82c20.871 0 37.79 16.918 37.79 37.79zm0 0" data-original="#c9f0ff"></path><path fill="#9ae7fd" d="M192.523 432.688v78.535h-15.41v-78.535c0-18.903-13.879-34.56-31.988-37.352 1.89-.29 3.82-.441 5.793-.441h3.824c20.863 0 37.781 16.917 37.781 37.792zm0 0" data-original="#9ae7fd"></path><path fill="#83afe4" d="M230.793 62.496c8.691 0 15.742-7.047 15.742-15.742 0-8.691-7.05-15.742-15.742-15.742-1.043 0-2.059.11-3.047.3-.27-16.707-13.89-30.175-30.668-30.175-16.941 0-30.68 13.738-30.68 30.683 0 1.918.188 3.793.524 5.617-2.867-3.89-7.465-6.421-12.664-6.421-8.696 0-15.742 7.047-15.742 15.742 0 8.691 7.047 15.742 15.742 15.742h76.535zm0 0" data-original="#83afe4"></path><path fill="#5290d9" d="M246.535 46.758c0 7.14-4.754 13.168-11.277 15.09.195-1 .293-2.02.293-3.075 0-6.718-4.422-12.855-10.805-14.96-3.344-1.106-6.055.015-8.09-3.258-1.457-2.352-1.078-5.645-2.101-8.184a30.732 30.732 0 0 0-6.672-10.137c-5.727-5.78-13.649-9.086-21.785-9.086a30.44 30.44 0 0 0-16.332 4.715c5.062-9.93 15.398-16.73 27.312-16.73 16.774 0 30.402 13.469 30.664 30.183.988-.199 2.012-.308 3.055-.308 8.687 0 15.738 7.05 15.738 15.75zm0 0" data-original="#5290d9"></path><path fill="#83afe4" d="M192.773 219.84c-6.144 0-11.128-4.985-11.128-11.13 0-6.148 4.984-11.128 11.128-11.128.739 0 1.457.074 2.153.211.191-11.813 9.824-21.332 21.68-21.332 11.98 0 21.69 9.71 21.69 21.687 0 1.36-.132 2.684-.37 3.973 2.027-2.75 5.277-4.539 8.953-4.539 6.148 0 11.129 4.98 11.129 11.129 0 6.144-4.98 11.129-11.13 11.129zm0 0" data-original="#83afe4"></path><path fill="#5290d9" d="M257.941 207.469c.461 4.23-1.558 8.402-5.152 10.676.887-.563-1.016-4.024-1.398-4.54-.989-1.332-2.38-2.355-3.871-3.054-2.41-1.125-4.81-.875-7.368-.356-1.523.313-3.062.567-4.625.442-2.468-.2-4.992-1.293-6.332-3.38-2.699-4.21-.164-9.902-3.043-14.128-2.472-3.629-7.328-5.926-11.539-6.563-7.504-1.136-14.43 1.586-19.078 6.477a21.688 21.688 0 0 1 24.402-16.336c10.958 1.633 18.715 11.113 18.344 22.184-.039 1.101-.16 2.18-.355 3.23 2.308-3.125 6.195-5.012 10.484-4.434 4.992.668 8.985 4.774 9.531 9.782zm0 0" data-original="#5290d9"></path><path fill="#ea4444" d="M418.996 511.227H277.56V242.445a5.135 5.135 0 0 1 5.136-5.136h131.168c2.836 0 5.137 2.3 5.137 5.136v268.782zm0 0" data-original="#ea4444"></path><path fill="#ececf1" d="M376.613 511.227h-51.808V454.71c0-2.84 2.3-5.137 5.136-5.137h41.536a5.133 5.133 0 0 1 5.136 5.137zm0 0" data-original="#ececf1"></path><path fill="#d3d3d8" d="M376.617 454.71v56.513h-18.43V454.71c0-2.836-2.3-5.137-5.14-5.137h18.433c2.836 0 5.137 2.301 5.137 5.137zm0 0" data-original="#d3d3d8"></path><path fill="#ea4444" d="M375.805 118.684a7.487 7.487 0 0 1-7.489-7.489V98.52a7.49 7.49 0 0 1 7.489-7.493 7.49 7.49 0 0 1 7.488 7.493v12.675a7.49 7.49 0 0 1-7.488 7.489zM375.805 161.438a7.487 7.487 0 0 1-7.489-7.489v-12.68a7.487 7.487 0 0 1 7.489-7.488 7.487 7.487 0 0 1 7.488 7.489v12.68a7.49 7.49 0 0 1-7.488 7.488zM375.805 204.188a7.487 7.487 0 0 1-7.489-7.489v-12.676a7.487 7.487 0 0 1 7.489-7.488 7.487 7.487 0 0 1 7.488 7.488V196.7a7.49 7.49 0 0 1-7.488 7.488zM345.684 118.684a7.487 7.487 0 0 1-7.489-7.489V98.52a7.49 7.49 0 0 1 7.489-7.493 7.49 7.49 0 0 1 7.488 7.493v12.675a7.487 7.487 0 0 1-7.488 7.489zM345.684 161.438a7.487 7.487 0 0 1-7.489-7.489v-12.68a7.487 7.487 0 0 1 7.489-7.488 7.487 7.487 0 0 1 7.488 7.489v12.68a7.487 7.487 0 0 1-7.488 7.488zM345.684 204.188a7.487 7.487 0 0 1-7.489-7.489v-12.676a7.487 7.487 0 0 1 7.489-7.488 7.487 7.487 0 0 1 7.488 7.488V196.7a7.487 7.487 0 0 1-7.488 7.488zM315.566 118.684a7.487 7.487 0 0 1-7.488-7.489V98.52a7.49 7.49 0 0 1 7.488-7.493 7.49 7.49 0 0 1 7.489 7.493v12.675a7.487 7.487 0 0 1-7.489 7.489zM315.566 161.438a7.487 7.487 0 0 1-7.488-7.489v-12.68a7.487 7.487 0 0 1 7.488-7.488 7.487 7.487 0 0 1 7.489 7.489v12.68a7.487 7.487 0 0 1-7.489 7.488zM315.566 204.188a7.487 7.487 0 0 1-7.488-7.489v-12.676a7.487 7.487 0 0 1 7.488-7.488 7.487 7.487 0 0 1 7.489 7.488V196.7a7.487 7.487 0 0 1-7.489 7.488zm0 0" data-original="#ea4444"></path><g fill="#fab2b2"><path d="M375.637 287.14a7.487 7.487 0 0 1-7.489-7.488v-16.789c0-4.136 3.352-7.488 7.489-7.488s7.488 3.352 7.488 7.488v16.79a7.487 7.487 0 0 1-7.488 7.488zM375.637 333.973a7.487 7.487 0 0 1-7.489-7.489v-16.789a7.49 7.49 0 0 1 14.977 0v16.79a7.487 7.487 0 0 1-7.488 7.488zM375.637 379.84a7.487 7.487 0 0 1-7.489-7.488v-16.79a7.49 7.49 0 0 1 14.977 0v16.79a7.487 7.487 0 0 1-7.488 7.488zM375.637 426.426a7.487 7.487 0 0 1-7.489-7.489v-16.789c0-4.136 3.352-7.488 7.489-7.488s7.488 3.352 7.488 7.488v16.79a7.487 7.487 0 0 1-7.488 7.488zM345.512 287.14a7.487 7.487 0 0 1-7.489-7.488v-16.789a7.49 7.49 0 0 1 14.977 0v16.79a7.487 7.487 0 0 1-7.488 7.488zM345.512 333.973a7.487 7.487 0 0 1-7.489-7.489v-16.789a7.49 7.49 0 0 1 14.977 0v16.79a7.487 7.487 0 0 1-7.488 7.488zM345.512 379.84a7.487 7.487 0 0 1-7.489-7.488v-16.79a7.49 7.49 0 0 1 14.977 0v16.79a7.487 7.487 0 0 1-7.488 7.488zM345.512 426.426a7.487 7.487 0 0 1-7.489-7.489v-16.789a7.49 7.49 0 0 1 14.977 0v16.79a7.487 7.487 0 0 1-7.488 7.488zM315.73 287.14a7.487 7.487 0 0 1-7.488-7.488v-16.789c0-4.136 3.352-7.488 7.488-7.488s7.489 3.352 7.489 7.488v16.79a7.487 7.487 0 0 1-7.489 7.488zM315.73 333.973a7.487 7.487 0 0 1-7.488-7.489v-16.789a7.49 7.49 0 0 1 14.977 0v16.79a7.487 7.487 0 0 1-7.489 7.488zM315.73 379.84a7.487 7.487 0 0 1-7.488-7.488v-16.79a7.49 7.49 0 0 1 14.977 0v16.79a7.487 7.487 0 0 1-7.489 7.488zM315.73 426.426a7.487 7.487 0 0 1-7.488-7.489v-16.789c0-4.136 3.352-7.488 7.488-7.488s7.489 3.352 7.489 7.488v16.79a7.487 7.487 0 0 1-7.489 7.488zm0 0" fill="#fab2b2" data-original="#fab2b2"></path></g><path fill="#c9f0ff" d="M120.695 338.68a7.487 7.487 0 0 1-7.488-7.489v-10.558a7.487 7.487 0 0 1 7.488-7.488 7.487 7.487 0 0 1 7.489 7.488v10.558a7.487 7.487 0 0 1-7.489 7.489zM155.73 338.68a7.49 7.49 0 0 1-7.492-7.489v-10.558a7.49 7.49 0 0 1 14.98 0v10.558a7.49 7.49 0 0 1-7.488 7.489zM190.762 338.68a7.487 7.487 0 0 1-7.489-7.489v-10.558c0-4.137 3.352-7.488 7.489-7.488s7.488 3.351 7.488 7.488v10.558a7.487 7.487 0 0 1-7.488 7.489zM120.695 379.113a7.487 7.487 0 0 1-7.488-7.488v-10.559a7.49 7.49 0 0 1 14.977 0v10.559a7.487 7.487 0 0 1-7.489 7.488zM155.73 379.113a7.49 7.49 0 0 1-7.492-7.488v-10.559a7.493 7.493 0 0 1 7.492-7.488 7.49 7.49 0 0 1 7.489 7.488v10.559a7.49 7.49 0 0 1-7.489 7.488zM190.762 379.113a7.487 7.487 0 0 1-7.489-7.488v-10.559a7.49 7.49 0 0 1 14.977 0v10.559a7.487 7.487 0 0 1-7.488 7.488zm0 0" data-original="#c9f0ff"></path><path fill="#ffcd6b" d="M123.602 170.094h-11.329a7.49 7.49 0 0 0 0 14.976h11.329c4.136 0 7.488-3.351 7.488-7.488s-3.352-7.488-7.488-7.488zM123.602 208.059h-11.329a7.49 7.49 0 0 0 0 14.976h11.329c4.136 0 7.488-3.351 7.488-7.488s-3.352-7.488-7.488-7.488zM123.602 246.023h-11.329a7.49 7.49 0 0 0 0 14.977h11.329c4.136 0 7.488-3.352 7.488-7.488s-3.352-7.489-7.488-7.489zm0 0" data-original="#ffcd6b" class=""></path></g></svg>